<svg width="142" height="19" viewBox="0 0 142 19" fill="none" xmlns="http://www.w3.org/2000/svg">
<path d="M1.33203 1.19531L13.4023 14.0391V5.78906C13.4023 5.125 13.3945 4.54688 13.3789 4.05469C13.3633 3.55469 13.3398 3.125 13.3086 2.76562C13.2773 2.39844 13.2383 2.09375 13.1914 1.85156C13.1523 1.60938 13.1094 1.40625 13.0625 1.24219V1.19531H15.1484V1.24219C15.1016 1.40625 15.0586 1.60938 15.0195 1.85156C14.9805 2.09375 14.9453 2.39844 14.9141 2.76562C14.8828 3.125 14.8594 3.55469 14.8438 4.05469C14.8281 4.54688 14.8203 5.125 14.8203 5.78906V18.2344H14.4102L2.33984 5.40234V13.418C2.33984 14.082 2.34766 14.6641 2.36328 15.1641C2.37891 15.6562 2.40234 16.082 2.43359 16.4414C2.46484 16.8008 2.5 17.1016 2.53906 17.3438C2.57812 17.5859 2.62109 17.7891 2.66797 17.9531V18H0.582031V17.9531C0.628906 17.7891 0.671875 17.5859 0.710938 17.3438C0.757812 17.1016 0.796875 16.8008 0.828125 16.4414C0.859375 16.082 0.882812 15.6562 0.898438 15.1641C0.914062 14.6641 0.921875 14.082 0.921875 13.418V5.78906C0.921875 5.125 0.914062 4.54688 0.898438 4.05469C0.882812 3.55469 0.859375 3.125 0.828125 2.76562C0.796875 2.39844 0.757812 2.09375 0.710938 1.85156C0.671875 1.60938 0.628906 1.40625 0.582031 1.24219V1.19531H1.33203Z" fill="white"/>
<path d="M30.043 18V17.9531C30.0586 17.9141 30.0703 17.8555 30.0781 17.7773C30.0859 17.6992 30.0898 17.6289 30.0898 17.5664C30.0898 17.3242 30.0547 17.0586 29.9844 16.7695C29.9219 16.4727 29.7969 16.1055 29.6094 15.668L28.1914 12.4805C27.7539 12.4648 27.1719 12.457 26.4453 12.457C25.7188 12.457 24.9336 12.457 24.0898 12.457C23.4727 12.457 22.875 12.457 22.2969 12.457C21.7266 12.457 21.2109 12.4648 20.75 12.4805L19.4023 15.5742C19.2852 15.8633 19.1602 16.1797 19.0273 16.5234C18.8945 16.8672 18.8281 17.2148 18.8281 17.5664C18.8281 17.668 18.8359 17.7539 18.8516 17.8242C18.8672 17.8867 18.8828 17.9297 18.8984 17.9531V18H16.5078V17.9531C16.6484 17.8047 16.8242 17.543 17.0352 17.168C17.2461 16.7852 17.4766 16.3086 17.7266 15.7383L24.4414 0.84375H25.3789L31.7422 15.1641C31.8906 15.5 32.043 15.8281 32.1992 16.1484C32.3633 16.4609 32.5156 16.7422 32.6562 16.9922C32.7969 17.2422 32.9219 17.4531 33.0312 17.625C33.1406 17.7969 33.2148 17.9062 33.2539 17.9531V18H30.043ZM22.4492 11.4492C22.9023 11.4492 23.3672 11.4492 23.8438 11.4492C24.3203 11.4414 24.7852 11.4375 25.2383 11.4375C25.6992 11.4297 26.1406 11.4258 26.5625 11.4258C26.9844 11.418 27.3672 11.4102 27.7109 11.4023L24.418 3.96094L21.1836 11.4492H22.4492Z" fill="white"/>
<path d="M35.1758 1.19531V1.24219C35.1602 1.28125 35.1484 1.33984 35.1406 1.41797C35.1328 1.49609 35.1289 1.56641 35.1289 1.62891C35.1289 1.87109 35.1602 2.14062 35.2227 2.4375C35.293 2.72656 35.4219 3.08984 35.6094 3.52734L40.8008 15.2344L45.8164 3.62109C45.9336 3.33203 46.0586 3.01562 46.1914 2.67188C46.3242 2.32812 46.3906 1.98047 46.3906 1.62891C46.3906 1.53516 46.3828 1.45703 46.3672 1.39453C46.3516 1.32422 46.3359 1.27344 46.3203 1.24219V1.19531H48.7227V1.24219C48.5742 1.39062 48.3945 1.65625 48.1836 2.03906C47.9727 2.42188 47.7422 2.89453 47.4922 3.45703L40.7773 18.3633H39.8398L33.4766 4.03125C33.3281 3.69531 33.1719 3.37109 33.0078 3.05859C32.8516 2.74609 32.7031 2.46484 32.5625 2.21484C32.4219 1.95703 32.2969 1.74219 32.1875 1.57031C32.0781 1.39844 32.0039 1.28906 31.9648 1.24219V1.19531H35.1758Z" fill="#7C8823"/>
<path d="M49.918 1.19531C50.8945 1.19531 51.8633 1.19141 52.8242 1.18359C53.793 1.17578 54.6797 1.16797 55.4844 1.16016C56.2891 1.14453 56.9766 1.125 57.5469 1.10156C58.1172 1.07812 58.5039 1.04688 58.707 1.00781L58.1328 2.56641C57.875 2.49609 57.5742 2.43359 57.2305 2.37891C56.9336 2.33203 56.5703 2.28906 56.1406 2.25C55.7188 2.20312 55.2305 2.17969 54.6758 2.17969C54.4883 2.17969 54.2617 2.1875 53.9961 2.20312C53.7383 2.21094 53.4883 2.22266 53.2461 2.23828C52.9648 2.25391 52.6797 2.26953 52.3906 2.28516V8.68359C53.1953 8.67578 53.9219 8.65234 54.5703 8.61328C55.2188 8.57422 55.7695 8.53516 56.2227 8.49609C56.7539 8.44922 57.2227 8.39453 57.6289 8.33203L57.2656 10.0312C56.7266 9.96094 56.1758 9.89453 55.6133 9.83203C55.1289 9.77734 54.6016 9.73047 54.0312 9.69141C53.4609 9.64453 52.9141 9.62109 52.3906 9.62109V16.9688C53.3125 16.9688 54.1602 16.9297 54.9336 16.8516C55.707 16.7734 56.3828 16.6836 56.9609 16.582C57.6328 16.4727 58.2461 16.3438 58.8008 16.1953L58.4609 18.0938C58.3672 18.0859 58.2266 18.0781 58.0391 18.0703C57.8516 18.0625 57.6406 18.0547 57.4062 18.0469C57.1797 18.0391 56.9375 18.0312 56.6797 18.0234C56.4297 18.0234 56.1914 18.0195 55.9648 18.0117C55.7383 18.0117 55.5352 18.0078 55.3555 18C55.1836 18 55.0586 18 54.9805 18H49.918V17.9531C49.9648 17.7891 50.0078 17.5859 50.0469 17.3438C50.0938 17.1016 50.1328 16.8008 50.1641 16.4414C50.1953 16.082 50.2188 15.6562 50.2344 15.1641C50.25 14.6641 50.2578 14.082 50.2578 13.418V5.78906C50.2578 5.125 50.25 4.54688 50.2344 4.05469C50.2188 3.55469 50.1953 3.125 50.1641 2.76562C50.1328 2.39844 50.0938 2.09375 50.0469 1.85156C50.0078 1.60938 49.9648 1.40625 49.918 1.24219V1.19531Z" fill="#7C8823"/>
<path d="M76.4727 16.0312C76.4727 16.1172 76.4609 16.207 76.4375 16.3008C76.4219 16.3945 76.3789 16.4727 76.3086 16.5352C75.957 16.8008 75.5742 17.0469 75.1602 17.2734C74.7539 17.4922 74.3125 17.6836 73.8359 17.8477C73.3594 18.0117 72.8438 18.1367 72.2891 18.2227C71.7422 18.3164 71.1523 18.3633 70.5195 18.3633C69.0977 18.3633 67.8008 18.1562 66.6289 17.7422C65.457 17.3203 64.4492 16.7266 63.6055 15.9609C62.7695 15.1953 62.1211 14.2773 61.6602 13.207C61.1992 12.1289 60.9688 10.9336 60.9688 9.62109C60.9688 8.87891 61.0625 8.14844 61.25 7.42969C61.4453 6.71094 61.7266 6.02734 62.0938 5.37891C62.4609 4.73047 62.9141 4.13672 63.4531 3.59766C63.9922 3.05078 64.6055 2.57812 65.293 2.17969C65.9883 1.78125 66.75 1.47266 67.5781 1.25391C68.4141 1.02734 69.3164 0.914062 70.2852 0.914062C70.6602 0.914062 71.043 0.933594 71.4336 0.972656C71.8242 1.00391 72.2109 1.05469 72.5938 1.125C72.9766 1.1875 73.3438 1.26562 73.6953 1.35938C74.0547 1.45312 74.3945 1.55859 74.7148 1.67578L75.5117 3.84375L75.418 3.89062C75.1133 3.61719 74.7617 3.36328 74.3633 3.12891C73.9648 2.89453 73.5391 2.69141 73.0859 2.51953C72.6328 2.34766 72.1562 2.21484 71.6562 2.12109C71.1641 2.01953 70.6641 1.96875 70.1562 1.96875C69.1719 1.96875 68.2695 2.125 67.4492 2.4375C66.6289 2.74219 65.9219 3.1875 65.3281 3.77344C64.7422 4.35938 64.2852 5.07812 63.957 5.92969C63.6289 6.78125 63.4648 7.75 63.4648 8.83594C63.4648 10.0312 63.6211 11.1406 63.9336 12.1641C64.2461 13.1875 64.7109 14.0742 65.3281 14.8242C65.9453 15.5742 66.7148 16.1641 67.6367 16.5938C68.5664 17.0156 69.6484 17.2266 70.8828 17.2266C71.4297 17.2266 71.918 17.1836 72.3477 17.0977C72.7773 17.0117 73.1406 16.9062 73.4375 16.7812C73.7344 16.6484 73.957 16.5078 74.1055 16.3594C74.2617 16.2031 74.3398 16.0625 74.3398 15.9375V15.4805C74.3398 14.9336 74.332 14.4609 74.3164 14.0625C74.3008 13.6641 74.2773 13.3203 74.2461 13.0312C74.2148 12.7344 74.1797 12.4805 74.1406 12.2695C74.1016 12.0586 74.0547 11.8633 74 11.6836V11.6367H76.8125V11.6836C76.7656 11.8477 76.7188 12.043 76.6719 12.2695C76.6328 12.4883 76.5977 12.75 76.5664 13.0547C76.5352 13.3594 76.5117 13.7188 76.4961 14.1328C76.4805 14.5391 76.4727 15.0117 76.4727 15.5508V16.0312Z" fill="#7C8823"/>
<path d="M91.2383 18V17.9531C91.2539 17.9141 91.2656 17.8555 91.2734 17.7773C91.2812 17.6992 91.2852 17.6289 91.2852 17.5664C91.2852 17.3242 91.25 17.0586 91.1797 16.7695C91.1172 16.4727 90.9922 16.1055 90.8047 15.668L89.3867 12.4805C88.9492 12.4648 88.3672 12.457 87.6406 12.457C86.9141 12.457 86.1289 12.457 85.2852 12.457C84.668 12.457 84.0703 12.457 83.4922 12.457C82.9219 12.457 82.4062 12.4648 81.9453 12.4805L80.5977 15.5742C80.4805 15.8633 80.3555 16.1797 80.2227 16.5234C80.0898 16.8672 80.0234 17.2148 80.0234 17.5664C80.0234 17.668 80.0312 17.7539 80.0469 17.8242C80.0625 17.8867 80.0781 17.9297 80.0938 17.9531V18H77.7031V17.9531C77.8438 17.8047 78.0195 17.543 78.2305 17.168C78.4414 16.7852 78.6719 16.3086 78.9219 15.7383L85.6367 0.84375H86.5742L92.9375 15.1641C93.0859 15.5 93.2383 15.8281 93.3945 16.1484C93.5586 16.4609 93.7109 16.7422 93.8516 16.9922C93.9922 17.2422 94.1172 17.4531 94.2266 17.625C94.3359 17.7969 94.4102 17.9062 94.4492 17.9531V18H91.2383ZM83.6445 11.4492C84.0977 11.4492 84.5625 11.4492 85.0391 11.4492C85.5156 11.4414 85.9805 11.4375 86.4336 11.4375C86.8945 11.4297 87.3359 11.4258 87.7578 11.4258C88.1797 11.418 88.5625 11.4102 88.9062 11.4023L85.6133 3.96094L82.3789 11.4492H83.6445Z" fill="white"/>
<path d="M99.7344 2.22656C98.8125 2.22656 97.9805 2.26953 97.2383 2.35547C96.4961 2.43359 95.8555 2.51953 95.3164 2.61328C94.6914 2.73047 94.1328 2.85938 93.6406 3L93.9805 1.10156C94.0742 1.10938 94.2148 1.11719 94.4023 1.125C94.5898 1.13281 94.7969 1.14062 95.0234 1.14844C95.2578 1.15625 95.5 1.16406 95.75 1.17188C96.0078 1.17188 96.25 1.17578 96.4766 1.18359C96.7031 1.18359 96.9023 1.1875 97.0742 1.19531C97.2539 1.19531 97.3828 1.19531 97.4609 1.19531H104.152C104.23 1.19531 104.355 1.19531 104.527 1.19531C104.707 1.1875 104.91 1.18359 105.137 1.18359C105.363 1.17578 105.602 1.17188 105.852 1.17188C106.109 1.16406 106.352 1.15625 106.578 1.14844C106.812 1.14062 107.023 1.13281 107.211 1.125C107.398 1.11719 107.539 1.10938 107.633 1.10156L107.973 3C107.473 2.85938 106.91 2.73047 106.285 2.61328C105.746 2.51953 105.105 2.43359 104.363 2.35547C103.621 2.26953 102.789 2.22656 101.867 2.22656V13.418C101.867 14.082 101.875 14.6641 101.891 15.1641C101.914 15.6562 101.938 16.082 101.961 16.4414C101.992 16.8008 102.027 17.1016 102.066 17.3438C102.113 17.5859 102.16 17.7891 102.207 17.9531V18H99.4062V17.9531C99.4531 17.7891 99.4961 17.5859 99.5352 17.3438C99.5742 17.1016 99.6094 16.8008 99.6406 16.4414C99.6719 16.082 99.6953 15.6562 99.7109 15.1641C99.7266 14.6641 99.7344 14.082 99.7344 13.418V2.22656Z" fill="white"/>
<path d="M117.09 0.914062C118.395 0.914062 119.598 1.12891 120.699 1.55859C121.809 1.98047 122.766 2.57812 123.57 3.35156C124.375 4.11719 125.004 5.03906 125.457 6.11719C125.91 7.19531 126.137 8.38672 126.137 9.69141C126.137 10.4336 126.051 11.1641 125.879 11.8828C125.707 12.6016 125.453 13.2812 125.117 13.9219C124.789 14.5625 124.383 15.1562 123.898 15.7031C123.414 16.2422 122.859 16.7109 122.234 17.1094C121.617 17.5 120.934 17.8047 120.184 18.0234C119.434 18.25 118.625 18.3633 117.758 18.3633C116.453 18.3633 115.246 18.1562 114.137 17.7422C113.035 17.3203 112.082 16.7266 111.277 15.9609C110.473 15.1953 109.844 14.2773 109.391 13.207C108.938 12.1289 108.711 10.9336 108.711 9.62109C108.711 8.87891 108.797 8.14844 108.969 7.42969C109.141 6.71094 109.391 6.02734 109.719 5.37891C110.055 4.73047 110.461 4.13672 110.938 3.59766C111.422 3.05078 111.973 2.57812 112.59 2.17969C113.215 1.78125 113.902 1.47266 114.652 1.25391C115.41 1.02734 116.223 0.914062 117.09 0.914062ZM117.758 17.3086C118.625 17.3086 119.418 17.1523 120.137 16.8398C120.855 16.5273 121.473 16.0742 121.988 15.4805C122.512 14.8867 122.918 14.1641 123.207 13.3125C123.496 12.4531 123.641 11.4805 123.641 10.3945C123.641 9.19141 123.5 8.07812 123.219 7.05469C122.945 6.02344 122.535 5.13281 121.988 4.38281C121.441 3.625 120.758 3.03516 119.938 2.61328C119.125 2.18359 118.176 1.96875 117.09 1.96875C116.223 1.96875 115.43 2.125 114.711 2.4375C113.992 2.74219 113.371 3.1875 112.848 3.77344C112.332 4.35938 111.93 5.07812 111.641 5.92969C111.352 6.78125 111.207 7.75 111.207 8.83594C111.207 10.0312 111.344 11.1484 111.617 12.1875C111.891 13.2188 112.301 14.1133 112.848 14.8711C113.395 15.6289 114.078 16.2266 114.898 16.6641C115.719 17.0938 116.672 17.3086 117.758 17.3086Z" fill="white"/>
<path d="M131.258 13.418C131.258 14.082 131.266 14.6641 131.281 15.1641C131.305 15.6562 131.328 16.082 131.352 16.4414C131.383 16.8008 131.418 17.1016 131.457 17.3438C131.504 17.5859 131.551 17.7891 131.598 17.9531V18H128.785V17.9531C128.832 17.7891 128.875 17.5859 128.914 17.3438C128.961 17.1016 129 16.8008 129.031 16.4414C129.062 16.082 129.086 15.6562 129.102 15.1641C129.117 14.6641 129.125 14.082 129.125 13.418V5.78906C129.125 5.125 129.117 4.54688 129.102 4.05469C129.086 3.55469 129.062 3.125 129.031 2.76562C129 2.39844 128.961 2.09375 128.914 1.85156C128.875 1.60938 128.832 1.40625 128.785 1.24219V1.19531C128.941 1.21094 129.105 1.22656 129.277 1.24219C129.426 1.25781 129.59 1.26953 129.77 1.27734C129.957 1.27734 130.148 1.27734 130.344 1.27734C130.648 1.27734 131.059 1.24219 131.574 1.17188C132.098 1.09375 132.762 1.05469 133.566 1.05469C134.316 1.05469 135.008 1.15625 135.641 1.35938C136.281 1.5625 136.836 1.85938 137.305 2.25C137.773 2.64062 138.137 3.12109 138.395 3.69141C138.66 4.25391 138.793 4.89453 138.793 5.61328C138.793 6.17578 138.719 6.69922 138.57 7.18359C138.43 7.66016 138.227 8.09375 137.961 8.48438C137.703 8.875 137.391 9.22266 137.023 9.52734C136.656 9.82422 136.246 10.0742 135.793 10.2773L139.906 16.0547C140.109 16.3438 140.297 16.5938 140.469 16.8047C140.648 17.0156 140.816 17.1953 140.973 17.3438C141.137 17.4922 141.293 17.6172 141.441 17.7188C141.59 17.8125 141.742 17.8906 141.898 17.9531V18H138.512C138.488 17.8516 138.41 17.6562 138.277 17.4141C138.152 17.1641 138.004 16.918 137.832 16.6758L133.684 10.8281C133.301 10.8672 132.906 10.8867 132.5 10.8867C132.094 10.8867 131.68 10.8516 131.258 10.7812V13.418ZM131.258 9.86719C132.023 10.0078 132.723 10.0273 133.355 9.92578C133.996 9.82422 134.543 9.60156 134.996 9.25781C135.457 8.91406 135.812 8.44922 136.062 7.86328C136.32 7.26953 136.449 6.55078 136.449 5.70703C136.449 5.12109 136.383 4.58984 136.25 4.11328C136.117 3.63672 135.918 3.23438 135.652 2.90625C135.395 2.57031 135.066 2.3125 134.668 2.13281C134.27 1.94531 133.805 1.85156 133.273 1.85156C132.938 1.85156 132.645 1.86719 132.395 1.89844C132.145 1.92188 131.934 1.94922 131.762 1.98047C131.559 2.01953 131.391 2.0625 131.258 2.10938V9.86719Z" fill="white"/>
</svg>
